<svg width="32" height="33" viewBox="0 0 32 33" fill="none" xmlns="http://www.w3.org/2000/svg">
    <path d="M16 0.5C7.1776 0.5 0 7.6776 0 16.5C0 25.3224 7.1776 32.5 16 32.5C24.8225 32.5 32 25.3224 32 16.5C32 7.6776 24.8225 0.5 16 0.5ZM16 29.5909C8.78167 29.5909 2.90909 23.7183 2.90909 16.5C2.90909 9.28167 8.78167 3.40909 16 3.40909C23.2183 3.40909 29.0909 9.28167 29.0909 16.5C29.0909 23.7183 23.2183 29.5909 16 29.5909Z" fill="#0B2746"/>
    <path d="M23.1993 9.3003C22.6313 8.73226 21.7103 8.73226 21.1423 9.3003L15.9997 14.4429L10.8571 9.3003C10.2891 8.73226 9.36811 8.73226 8.80006 9.3003C8.23201 9.86835 8.23201 10.7893 8.80006 11.3573L13.9427 16.4999L8.80006 21.6425C8.23201 22.2106 8.23201 23.1315 8.80006 23.6995C9.08408 23.9836 9.45635 24.1256 9.82852 24.1256C10.2008 24.1256 10.5731 23.9836 10.857 23.6995L15.9996 18.5569L21.1422 23.6995C21.4262 23.9836 21.7985 24.1256 22.1706 24.1256C22.5429 24.1256 22.9152 23.9836 23.1992 23.6995C23.7672 23.1315 23.7672 22.2106 23.1992 21.6425L18.0567 16.4999L23.1993 11.3573C23.7673 10.7893 23.7673 9.86835 23.1993 9.3003Z" fill="#0B2746"/>
</svg>
